<?xml version="1.0" encoding="UTF-8"?>
<!-- Created with Inkscape (http://www.inkscape.org/) -->
<svg id="SVGRoot" width="1e3px" height="1e3px" version="1.1" viewBox="0 0 1000 1000" xmlns="http://www.w3.org/2000/svg" xmlns:cc="http://creativecommons.org/ns#" xmlns:dc="http://purl.org/dc/elements/1.1/" xmlns:rdf="http://www.w3.org/1999/02/22-rdf-syntax-ns#">
 <metadata>
  <rdf:RDF>
   <cc:Work rdf:about="">
    <dc:format>image/svg+xml</dc:format>
    <dc:type rdf:resource="http://purl.org/dc/dcmitype/StillImage"/>
    <dc:title/>
   </cc:Work>
  </rdf:RDF>
 </metadata>
 <g stroke-linejoin="round">
  <ellipse cx="500.28" cy="504.03" rx="438.3" ry="453.56" fill="#5a5a5a" stroke="#000" stroke-width="19.002" style="paint-order:normal"/>
  <ellipse cx="502.09" cy="508.68" rx="365.47" ry="383.31" fill="none" stroke="#000" stroke-width="14.252" style="paint-order:normal"/>
  <path d="m482.86 611.63c0.39457-106.11 1.1994-240.73 1.7885-299.15l1.0711-106.22h38.484l-6.6e-4 103.58c-3.8e-4 56.968-0.5301 191.59-1.1772 299.15l-1.1765 195.57h-39.707z" fill="#fff" stroke="#0b0b0b" stroke-width="13.816" style="paint-order:normal"/>
  <path d="m463.71 762.24c-37.971-8.3023-73.543-30.403-102.1-63.434l-10.775-12.464 3.4638-2.8756c1.9051-1.5816 8.9135-7.1869 15.574-12.456l12.11-9.5806 4.285 5.0471c27.432 32.311 57.553 51.595 89.516 57.311 10.074 1.8014 28.365 1.7805 38.139-0.0436 12.356-2.306 28.883-8.9566 39.274-15.804 34.188-22.531 49.544-59.908 38.303-93.229-12.024-35.643-48.531-64.845-107.75-86.192-43.855-15.808-62.73-26.08-83.379-45.376-16.451-15.373-29.889-37.79-35.587-59.363-4.2433-16.067-3.9647-43.045 0.62623-60.648 15.096-57.883 65.673-105.5 122.78-115.6 35.381-6.2554 70.945 2.2978 102.52 24.655 10.264 7.2679 37.245 33.576 36.511 35.6-0.23212 0.64013-7.078 6.5316-15.213 13.092l-14.791 11.928-12.112-12.321c-38.338-39.001-83.05-45.671-127.49-19.019-18.618 11.166-40.159 36.114-48.415 56.072-11.095 26.82-10.362 53.948 2.0541 76.043 8.9441 15.916 30.531 34.322 51.648 44.035 4.9725 2.2873 17.308 7.0894 27.413 10.671 35.923 12.734 59.39 24.329 81.597 40.317 30.564 22.006 51.73 50.605 59.686 80.65 3.9799 15.028 3.9643 40.726-0.0338 55.643-5.6478 21.072-15.716 38.614-32.06 55.858-17.505 18.469-41.209 32.59-66.539 39.639-10.614 2.9537-15.784 3.5462-34.777 3.9858-18.756 0.43415-24.247 0.0928-34.474-2.1433z" fill="#fff" stroke="#000" stroke-width="17.812" style="paint-order:normal"/>
 </g>
</svg>
