<?xml version="1.0" encoding="UTF-8" standalone="no"?>
<!-- Created with Inkscape (http://www.inkscape.org/) -->

<svg
   xmlns:dc="http://purl.org/dc/elements/1.1/"
   xmlns:cc="http://creativecommons.org/ns#"
   xmlns:rdf="http://www.w3.org/1999/02/22-rdf-syntax-ns#"
   xmlns:svg="http://www.w3.org/2000/svg"
   xmlns="http://www.w3.org/2000/svg"
   xmlns:sodipodi="http://sodipodi.sourceforge.net/DTD/sodipodi-0.dtd"
   xmlns:inkscape="http://www.inkscape.org/namespaces/inkscape"
   id="SVGRoot"
   width="1e3px"
   height="1e3px"
   version="1.1"
   viewBox="0 0 1000 1000"
   sodipodi:docname="peso.svg"
   inkscape:version="0.92.1 r15371">
  <defs
     id="defs5047" />
  <sodipodi:namedview
     pagecolor="#ffffff"
     bordercolor="#666666"
     borderopacity="1"
     objecttolerance="10"
     gridtolerance="10"
     guidetolerance="10"
     inkscape:pageopacity="0"
     inkscape:pageshadow="2"
     inkscape:window-width="1366"
     inkscape:window-height="715"
     id="namedview5045"
     showgrid="false"
     inkscape:zoom="0.77498903"
     inkscape:cx="468.83524"
     inkscape:cy="435.07505"
     inkscape:window-x="-8"
     inkscape:window-y="-8"
     inkscape:window-maximized="1"
     inkscape:current-layer="SVGRoot" />
  <metadata
     id="metadata5036">
    <rdf:RDF>
      <cc:Work
         rdf:about="">
        <dc:format>image/svg+xml</dc:format>
        <dc:type
           rdf:resource="http://purl.org/dc/dcmitype/StillImage" />
        <dc:title />
      </cc:Work>
    </rdf:RDF>
  </metadata>
  <g
     transform="matrix(9.5606,0,0,9.8807,1024.5039,3.2597175)"
     id="g5042"
     style="stroke:#000000;stroke-width:1.16660099;stroke-miterlimit:4;stroke-dasharray:none;fill:#5a5a5a;fill-opacity:1">
    <path
       d="M 14.808,35.304 C 19.4412,29.0834 27.981,23.753 34.56,21.43 30.8894,8.877 38.6826,3.474 44.2535,3.52 c 11.95,0.21177 10.313,15.127 9.4007,17.549 6.9691,1.0814 14.92,7.9851 19.528,12.85 3.6063,5.1905 6.8993,10.38 7.6797,17.247 0.36642,6.7642 -0.82627,7.1817 -7.6797,5.3811 0.74156,9.5942 -0.37763,18.195 -9.2985,22.629 -0.79622,9.7741 -2.3332,18.493 -10.332,18.011 -2.7223,-0.59236 -5.8688,-4.3532 -8.7046,-7.6888 -3.1441,3.941 -6.2672,8.3851 -9.8924,8.4717 -8.6314,-4.2099 -9.3898,-11.294 -9.2985,-18.332 -11.225,-5.6446 -12.166,-14.002 -10.332,-23.09 -3.7836,1.8162 -8.4556,4.6916 -8.2736,-2.6103 1.472,-6.3733 3.3601,-12.693 7.757,-18.633 z"
       id="path5038"
       inkscape:connector-curvature="0"
       style="fill:#5a5a5a;stroke-width:1.16660099;stroke-miterlimit:4;stroke-dasharray:none;fill-opacity:1" />
    <path
       d="m 25.656,79.638 c 13.572,3.442 25.966,1.7759 38.227,-0.4618"
       id="path5040"
       inkscape:connector-curvature="0"
       style="fill:#5a5a5a;stroke-width:1.16660099;stroke-miterlimit:4;stroke-dasharray:none;fill-opacity:1" />
  </g>
  <ellipse
     style="opacity:1;fill:#5a5a5a;fill-opacity:1;stroke:#000000;stroke-width:11.33858268;stroke-linecap:butt;stroke-linejoin:round;stroke-miterlimit:4;stroke-dasharray:none;stroke-opacity:1;paint-order:normal"
     id="path5049"
     cx="489.05109"
     cy="502.73721"
     rx="441.60583"
     ry="444.34308" />
  <ellipse
     style="opacity:1;fill:#5a5a5a;fill-opacity:1;stroke:#ffffff;stroke-width:12.11841297;stroke-linecap:butt;stroke-linejoin:round;stroke-miterlimit:4;stroke-dasharray:none;stroke-opacity:1;paint-order:normal"
     id="path5051"
     cx="490.87592"
     cy="507.29929"
     rx="368.22327"
     ry="375.52249" />
  <path
     style="fill:#5a5a5a;stroke:#ffffff;stroke-width:35.23653543;stroke-linecap:butt;stroke-linejoin:miter;stroke-miterlimit:4;stroke-dasharray:none;stroke-opacity:1;fill-opacity:1"
     d="M 597.66934,340.61142 C 467.87248,180.48651 255.93338,443.54447 478.77435,511.19148 744.48964,599.01772 511.98028,845.50943 367.50084,662.48859"
     id="path5053"
     inkscape:connector-curvature="0"
     sodipodi:nodetypes="ccc" />
  <path
     style="fill:none;stroke:#ffffff;stroke-width:27.73330307;stroke-linecap:butt;stroke-linejoin:miter;stroke-miterlimit:4;stroke-dasharray:none;stroke-opacity:1"
     d="m 489.36671,254.01571 -1.82986,520.53345"
     id="path5055"
     inkscape:connector-curvature="0" />
  <path
     style="opacity:1;fill:#ffffff;fill-opacity:1;stroke:#000000;stroke-width:22.7335701;stroke-linecap:butt;stroke-linejoin:round;stroke-miterlimit:4;stroke-dasharray:none;stroke-opacity:1;paint-order:normal"
     d="m 473.81925,759.72097 v -14.39761 l -7.25817,-1.08747 c -16.07347,-2.40826 -29.04694,-6.59518 -45.32322,-14.62716 -17.10706,-8.44195 -32.81725,-19.79724 -47.60762,-34.41069 -8.03172,-7.93566 -19.35195,-20.8666 -19.04199,-21.75142 0.10838,-0.30939 6.14271,-5.24508 13.40963,-10.96822 l 13.21258,-10.40568 1.53065,1.82854 c 26.21486,31.31671 53.34824,49.12554 84.08786,55.19057 3.84039,0.75772 7.1156,1.2446 7.27824,1.08196 0.16264,-0.16264 0.33841,-41.19493 0.39061,-91.18285 l 0.0949,-90.88715 -8.93524,-3.02608 c -52.99932,-17.94919 -87.03622,-49.11505 -97.94518,-89.68342 -9.47736,-35.24451 0.68524,-75.85553 27.20168,-108.70141 20.22216,-25.04915 47.44837,-42.69983 78.0988,-50.63124 l 2.74198,-0.70955 v -10.62044 -10.62044 h 13.54858 13.54857 v 8.97734 8.97734 l 5.00008,0.40644 c 16.25981,1.32172 27.44103,3.76539 39.9569,8.73265 17.4244,6.91534 33.17529,17.34511 47.54107,31.48028 6.92808,6.81687 15.25987,15.98752 15.22119,16.75369 -0.0254,0.50268 -25.2,20.93104 -26.20828,21.26713 -0.3192,0.1064 -2.83675,-2.36957 -5.59455,-5.50217 -15.66313,-17.79176 -34.74184,-30.18674 -54.27683,-35.26236 -6.06288,-1.57527 -20.6272,-3.50863 -21.30735,-2.82848 -0.18346,0.18346 -0.40585,43.95167 -0.49419,97.26269 l -0.16062,96.92913 7.09687,2.90707 c 27.7564,11.36977 52.26776,26.70242 69.92483,43.74024 38.09068,36.75479 48.06039,83.39914 27.06524,126.62764 -17.59013,36.21768 -54.86813,62.61022 -98.24048,69.55348 -3.52647,0.56454 -6.64748,1.17212 -6.93558,1.35017 -0.28809,0.17805 -0.52381,6.69378 -0.52381,14.4794 v 14.15568 h -13.54858 -13.54857 z m 38.69001,-51.81425 c 17.76258,-4.13987 34.08831,-13.41511 47.44024,-26.9525 22.85472,-23.17219 28.91527,-53.2454 16.15774,-80.17681 -4.59726,-9.70491 -9.49344,-16.44178 -18.73757,-25.7818 -12.58777,-12.71837 -25.48759,-21.70419 -45.47958,-31.68039 l -9.36076,-4.67112 -0.39849,9.83248 c -0.21917,5.40786 -0.43692,44.01119 -0.48388,85.78517 l -0.0854,75.95269 2.09681,-0.36678 c 1.15324,-0.20174 5.13613,-1.07516 8.85088,-1.94094 z M 475.10959,433.57465 c 0,-31.87761 0.19259,-72.37818 0.42797,-90.00127 0.36573,-27.38195 0.29536,-32.04115 -0.48388,-32.03609 -0.50151,0.003 -3.99072,1.2638 -7.75378,2.80119 -32.15356,13.13632 -58.04819,42.451 -66.1456,74.88181 -2.02288,8.10183 -2.73032,21.46416 -1.56008,29.46748 3.91174,26.75255 22.64435,48.72311 54.94493,64.44221 7.96926,3.87824 18.50569,8.27009 20.08656,8.37257 0.26613,0.0172 0.48388,-26.0503 0.48388,-57.9279 z"
     id="path5059"
     inkscape:connector-curvature="0" />
  <path
     style="opacity:1;fill:#ffffff;fill-opacity:1;stroke:#000000;stroke-width:7.55905512;stroke-linecap:butt;stroke-linejoin:round;stroke-miterlimit:4;stroke-dasharray:none;stroke-opacity:1;paint-order:normal"
     d="M 447.59719,885.44794 C 359.97725,873.97772 283.95358,835.5731 223.09496,772.03691 137.50621,682.68255 100.58946,555.26854 124.80465,432.79898 157.05512,269.69057 288.45746,147.29871 451.14393,128.83732 c 26.7783,-3.03876 79.41713,-1.25912 105.0741,3.55239 103.35111,19.38167 192.27113,80.08805 249.67226,170.45316 9.95836,15.67718 27.22114,50.94727 34.57907,70.64954 7.14756,19.13888 14.05499,45.11062 18.68511,70.25547 4.69044,25.47234 5.65068,82.22788 1.89095,111.76666 -16.06452,126.21332 -91.62421,234.82626 -203.25396,292.16655 -33.36542,17.13863 -71.04994,29.45077 -109.8293,35.88298 -24.29727,4.03011 -76.48685,5.0097 -100.36497,1.88387 z m 88.86639,-11.11676 C 698.42936,853.19071 825.32825,726.20589 850.04621,560.5362 c 4.02231,-26.95925 4.03481,-79.07593 0.0254,-105.83941 C 830.00708,320.76414 745.54208,212.04776 623.05363,162.49801 533.58013,126.30365 425.37316,129.7265 338.06885,171.51278 152.42268,260.36823 75.128464,486.10938 166.57453,672.36945 c 31.39576,63.94781 77.49345,115.07932 137.2221,152.20659 41.05638,25.52058 97.12314,45.0625 144.71297,50.43927 23.59285,2.66556 64.74292,2.34549 87.95398,-0.68413 z"
     id="path5061"
     inkscape:connector-curvature="0" />
</svg>
