<?xml version="1.0" encoding="UTF-8"?>
<!-- Created with Inkscape (http://www.inkscape.org/) -->
<svg id="SVGRoot" width="1e3px" height="1e3px" version="1.1" viewBox="0 0 1000 1000" xmlns="http://www.w3.org/2000/svg" xmlns:cc="http://creativecommons.org/ns#" xmlns:dc="http://purl.org/dc/elements/1.1/" xmlns:rdf="http://www.w3.org/1999/02/22-rdf-syntax-ns#">
 <metadata>
  <rdf:RDF>
   <cc:Work rdf:about="">
    <dc:format>image/svg+xml</dc:format>
    <dc:type rdf:resource="http://purl.org/dc/dcmitype/StillImage"/>
    <dc:title/>
   </cc:Work>
  </rdf:RDF>
 </metadata>
 <g transform="matrix(8.8013 0 0 9.1901 -642.4 -549.28)" fill="#5a5a5a" stroke-width="1.2713">
  <g fill="#5a5a5a" stroke="#000" stroke-width="1.2713">
   <path d="m95.682 164.58 0.26727-29.142-2.94-0.13364-5.6127-5.3454 0.53454-29.4 9.3544-8.5526h13.631c-6.1921-1.3351-8.6766-2.1956-11.206-7.6077-1.9314-3.4745-2.5717-8.0829-0.94494-11.557 2.9784-6.7774 7.7187-7.3364 13.488-7.8291 7.0885 0.33114 9.9833 3.8222 11.506 6.7142 1.6435 5.6255 1.9997 7.8883-2.165 15.196-2.7502 3.0427-6.4168 4.5582-10.677 5.0837l11.225-0.26727-8.8199 8.2853-0.53454 28.865 10.691 10.424-0.26727 25.123z"/>
   <path d="m120.81 127.28 0.26726-23.252 11.76-13.096 11.76 0.26727c-3.5871-1.1254-6.3687-1.0763-10.216-5.0133-3.4017-4.9972-3.1748-11.88-0.91252-15.618 3.6877-4.1797 6.1572-5.2524 11.93-5.294 6.545-0.08034 9.0533 2.1231 11.708 5.1698 3.3115 5.0183 2.8983 10.379-1.3229 15.507-4.7218 3.8823-6.4656 3.8485-11.187 5.2481l10.691-0.26727v10.424l6.6817 5.8799 9.889 0.26727-0.8018 21.382-6.4145 5.8799h-3.7418l0.26727 28.865h-31.805l0.13364-30.068-2.8063-0.13364z"/>
   <path d="m159.32 99.297-0.0416-8.2517c3.6622 0.3125 6.7615 0.91469 9.8904 2.4717 1.4687 3.1279 1.8452 6.568 2.0847 10.047l-7.4626-0.31509z"/>
  </g>
 </g>
</svg>
