<?xml version="1.0" encoding="UTF-8"?>
<!-- Created with Inkscape (http://www.inkscape.org/) -->
<svg id="SVGRoot" width="1e3px" height="1e3px" version="1.1" viewBox="0 0 1000 1000" xmlns="http://www.w3.org/2000/svg" xmlns:cc="http://creativecommons.org/ns#" xmlns:dc="http://purl.org/dc/elements/1.1/" xmlns:rdf="http://www.w3.org/1999/02/22-rdf-syntax-ns#">
 <metadata>
  <rdf:RDF>
   <cc:Work rdf:about="">
    <dc:format>image/svg+xml</dc:format>
    <dc:type rdf:resource="http://purl.org/dc/dcmitype/StillImage"/>
    <dc:title/>
   </cc:Work>
  </rdf:RDF>
 </metadata>
 <g transform="matrix(3.875 0 0 4.5849 106.9 -157.19)" stroke="#000">
  <path d="m3.6838 152.65 1.1106-77.338 48.211-19.089 41.068 34.625 45.183-34.296 50.85 21.298-0.13956 65.213 18.968 15.53 5e-5 29.044-17.301 12.446-14.312-9e-5 0.0698 16.024-12.187 15.311-24.181-0.22232-20.673-14.747-26.587 32.269z" fill="#5a5a5a" stroke-linejoin="round" stroke-width="2.5147"/>
  <path d="m145.75 128.9 17.911 0.2341 0.22528 32.575 31.429 0.23413v21.795h-31.091l-0.45064 34.215-19.263-0.11705-0.45062-34.332-31.655-0.70334-0.33799-21.091 33.682-1e-4z" fill="#fff" stroke-width="2.5735px"/>
 </g>
</svg>
